<svg width="83" height="79" viewBox="0 0 83 79" fill="none" xmlns="http://www.w3.org/2000/svg">
    <path d="M23.715 47.827C35.1556 47.827 44.4301 38.5526 44.4301 27.112C44.4301 15.6714 35.1556 6.39697 23.715 6.39697C12.2744 6.39697 3 15.6714 3 27.112C3 38.5526 12.2744 47.827 23.715 47.827Z" stroke="#C8A7A7" stroke-width="5" stroke-linecap="round" stroke-linejoin="round"/>
    <path d="M39.3938 76.1072C52.5614 76.1072 63.2358 65.4327 63.2358 52.2651C63.2358 39.0975 52.5614 28.4231 39.3938 28.4231C26.2262 28.4231 15.5518 39.0975 15.5518 52.2651C15.5518 65.4327 26.2262 76.1072 39.3938 76.1072Z" stroke="#C8A7A7" stroke-width="5" stroke-linecap="round" stroke-linejoin="round"/>
    <path d="M65.6881 32.2907C73.8171 32.2907 80.407 25.7009 80.407 17.5719C80.407 9.44288 73.8171 2.85303 65.6881 2.85303C57.5591 2.85303 50.9692 9.44288 50.9692 17.5719C50.9692 25.7009 57.5591 32.2907 65.6881 32.2907Z" stroke="#C8A7A7" stroke-width="5" stroke-linecap="round" stroke-linejoin="round"/>
    <path d="M65.6881 67.5545C71.4357 67.5545 76.095 62.8952 76.095 57.1476C76.095 51.4 71.4357 46.7407 65.6881 46.7407C59.9406 46.7407 55.2812 51.4 55.2812 57.1476C55.2812 62.8952 59.9406 67.5545 65.6881 67.5545Z" stroke="#C8A7A7" stroke-width="5" stroke-linecap="round" stroke-linejoin="round"/>
</svg>
