<svg width="111" height="80" viewBox="0 0 111 80" fill="none" xmlns="http://www.w3.org/2000/svg">
    <path d="M40.0138 76.7069C60.456 76.7069 77.0277 60.1352 77.0277 39.693C77.0277 19.2509 60.456 2.6792 40.0138 2.6792C19.5717 2.6792 3 19.2509 3 39.693C3 60.1352 19.5717 76.7069 40.0138 76.7069Z" stroke="#C8A7A7" stroke-width="5" stroke-linecap="round" stroke-linejoin="round"/>
    <path d="M14.5972 39.6931C14.5972 25.66 25.9751 14.2766 40.0137 14.2766" stroke="#C8A7A7" stroke-width="5" stroke-linecap="round" stroke-linejoin="round"/>
    <path d="M65.4302 39.6931C65.4302 53.7262 54.0523 65.1096 40.0137 65.1096" stroke="#C8A7A7" stroke-width="5" stroke-linecap="round" stroke-linejoin="round"/>
    <path d="M40.0136 46.5231C43.7857 46.5231 46.8437 43.4652 46.8437 39.6931C46.8437 35.9209 43.7857 32.863 40.0136 32.863C36.2415 32.863 33.1836 35.9209 33.1836 39.6931C33.1836 43.4652 36.2415 46.5231 40.0136 46.5231Z" stroke="#C8A7A7" stroke-width="5" stroke-linecap="round" stroke-linejoin="round"/>
    <path d="M40.0137 76.707H75.2336C93.3373 76.707 101.358 60.7209 97.6602 49.4088C93.9627 38.0967 85.9312 17.5244 107.946 13.2014" stroke="#C8A7A7" stroke-width="5" stroke-linecap="round" stroke-linejoin="round"/>
</svg>
