<svg width="26" height="24" viewBox="0 0 26 24" fill="none" xmlns="http://www.w3.org/2000/svg">
    <path d="M0.866667 4.2852H0.989733C1.1789 5.02032 1.61032 5.67215 2.21582 6.1377C2.82132 6.60326 3.5664 6.856 4.33333 6.856C5.10027 6.856 5.84534 6.60326 6.45085 6.1377C7.05635 5.67215 7.48776 5.02032 7.67693 4.2852H25.1333C25.3632 4.2852 25.5836 4.19489 25.7462 4.03413C25.9087 3.87337 26 3.65534 26 3.428C26 3.20065 25.9087 2.98262 25.7462 2.82187C25.5836 2.66111 25.3632 2.5708 25.1333 2.5708H7.67693C7.48776 1.83568 7.05635 1.18385 6.45085 0.718296C5.84534 0.252742 5.10027 0 4.33333 0C3.5664 0 2.82132 0.252742 2.21582 0.718296C1.61032 1.18385 1.1789 1.83568 0.989733 2.5708H0.866667C0.636812 2.5708 0.416372 2.66111 0.253841 2.82187C0.0913092 2.98262 0 3.20065 0 3.428C0 3.65534 0.0913092 3.87337 0.253841 4.03413C0.416372 4.19489 0.636812 4.2852 0.866667 4.2852ZM4.33333 1.7136C4.67615 1.7136 5.01128 1.81415 5.29632 2.00253C5.58137 2.19091 5.80353 2.45866 5.93472 2.77193C6.06592 3.08519 6.10024 3.4299 6.03336 3.76246C5.96648 4.09502 5.8014 4.4005 5.55899 4.64026C5.31657 4.88003 5.00772 5.04331 4.67149 5.10946C4.33526 5.17561 3.98674 5.14166 3.67002 5.0119C3.35329 4.88214 3.08258 4.6624 2.89212 4.38047C2.70166 4.09854 2.6 3.76707 2.6 3.428C2.6 2.97331 2.78262 2.53725 3.10768 2.21573C3.43274 1.89422 3.87362 1.7136 4.33333 1.7136ZM25.1333 11.1428H25.0103C24.8211 10.4077 24.3897 9.75585 23.7842 9.2903C23.1787 8.82474 22.4336 8.572 21.6667 8.572C20.8997 8.572 20.1547 8.82474 19.5492 9.2903C18.9436 9.75585 18.5122 10.4077 18.3231 11.1428H0.866667C0.636812 11.1428 0.416372 11.2331 0.253841 11.3939C0.0913092 11.5546 0 11.7727 0 12C0 12.2273 0.0913092 12.4454 0.253841 12.6061C0.416372 12.7669 0.636812 12.8572 0.866667 12.8572H18.3231C18.5122 13.5923 18.9436 14.2441 19.5492 14.7097C20.1547 15.1753 20.8997 15.428 21.6667 15.428C22.4336 15.428 23.1787 15.1753 23.7842 14.7097C24.3897 14.2441 24.8211 13.5923 25.0103 12.8572H25.1333C25.3632 12.8572 25.5836 12.7669 25.7462 12.6061C25.9087 12.4454 26 12.2273 26 12C26 11.7727 25.9087 11.5546 25.7462 11.3939C25.5836 11.2331 25.3632 11.1428 25.1333 11.1428ZM21.6667 13.7144C21.3238 13.7144 20.9887 13.6139 20.7037 13.4255C20.4186 13.2371 20.1965 12.9693 20.0653 12.6561C19.9341 12.3428 19.8998 11.9981 19.9666 11.6655C20.0335 11.333 20.1986 11.0275 20.441 10.7877C20.6834 10.548 20.9923 10.3847 21.3285 10.3185C21.6647 10.2524 22.0133 10.2863 22.33 10.4161C22.6467 10.5459 22.9174 10.7656 23.1079 11.0475C23.2983 11.3295 23.4 11.6609 23.4 12C23.4 12.4547 23.2174 12.8908 22.8923 13.2123C22.5673 13.5338 22.1264 13.7144 21.6667 13.7144ZM25.1333 19.7148H16.3436C16.1544 18.9797 15.723 18.3279 15.1175 17.8623C14.512 17.3967 13.7669 17.144 13 17.144C12.2331 17.144 11.488 17.3967 10.8825 17.8623C10.277 18.3279 9.84557 18.9797 9.6564 19.7148H0.866667C0.636812 19.7148 0.416372 19.8051 0.253841 19.9659C0.0913092 20.1266 0 20.3447 0 20.572C0 20.7993 0.0913092 21.0174 0.253841 21.1781C0.416372 21.3389 0.636812 21.4292 0.866667 21.4292H9.6564C9.84557 22.1643 10.277 22.8161 10.8825 23.2817C11.488 23.7473 12.2331 24 13 24C13.7669 24 14.512 23.7473 15.1175 23.2817C15.723 22.8161 16.1544 22.1643 16.3436 21.4292H25.1333C25.3632 21.4292 25.5836 21.3389 25.7462 21.1781C25.9087 21.0174 26 20.7993 26 20.572C26 20.3447 25.9087 20.1266 25.7462 19.9659C25.5836 19.8051 25.3632 19.7148 25.1333 19.7148ZM13 22.2864C12.6572 22.2864 12.3221 22.1859 12.037 21.9975C11.752 21.8091 11.5298 21.5413 11.3986 21.2281C11.2674 20.9148 11.2331 20.5701 11.3 20.2375C11.3669 19.905 11.5319 19.5995 11.7743 19.3597C12.0168 19.12 12.3256 18.9567 12.6618 18.8905C12.9981 18.8244 13.3466 18.8583 13.6633 18.9881C13.98 19.1179 14.2508 19.3376 14.4412 19.6195C14.6317 19.9015 14.7333 20.2329 14.7333 20.572C14.7333 21.0267 14.5507 21.4628 14.2257 21.7843C13.9006 22.1058 13.4597 22.2864 13 22.2864Z" fill="white"/>
</svg>
