<svg width="148" height="58" viewBox="0 0 148 58" fill="none" xmlns="http://www.w3.org/2000/svg">
    <path d="M44.4594 58H48.0622C51.5133 58 54.823 56.6379 57.2633 54.2133C59.7035 51.7887 61.0744 48.5003 61.0744 45.0715V22.2159H53.3859V45.7604C53.3859 47.3655 52.7442 48.9049 51.6018 50.0399C50.4595 51.1749 48.9101 51.8125 47.2946 51.8125H45.2394C43.6228 51.8125 42.0721 51.1753 40.9278 50.0406C39.7835 48.906 39.139 47.3666 39.1357 45.7604V22.2159H31.4472V45.0715C31.4472 48.5003 32.8181 51.7887 35.2584 54.2133C37.6987 56.6379 41.0084 58 44.4594 58Z" fill="#C8A7A7"/>
    <path d="M80.0666 31.3434L95.2826 57.5449L105.175 57.4957V22.2159H98.1178V48.3436L82.9265 22.2159H73.0838V57.4957H80.0666V31.3434Z" fill="#C8A7A7"/>
    <path d="M7.67609 22.2159H0V57.4957H22.2235V51.3574H7.67609V22.2159Z" fill="#C8A7A7"/>
    <path d="M148 57.5325L135.619 22.2159H125.999L113.619 57.5325H121.555L124.328 48.8479H137.328L140.089 57.5325H148ZM126.259 42.7711L130.803 28.5018L135.347 42.7711H126.259Z" fill="#C8A7A7"/>
    <path d="M55.664 1.13119e-05C54.3314 -0.00242259 53.028 0.38796 51.9188 1.12179C50.8096 1.85561 49.9444 2.89989 49.4327 4.12245C48.9211 5.34501 48.7859 6.6909 49.0444 7.9898C49.3029 9.2887 49.9433 10.4822 50.8848 11.4193C51.8262 12.3564 53.0263 12.995 54.3331 13.2542C55.64 13.5134 56.9948 13.3816 58.2262 12.8755C59.4576 12.3693 60.5103 11.5117 61.2509 10.4109C61.9915 9.31019 62.3868 8.01589 62.3868 6.69185C62.3884 5.81365 62.2157 4.94373 61.8786 4.13191C61.5415 3.32009 61.0466 2.58229 60.4221 1.96073C59.7977 1.33918 59.056 0.846066 58.2395 0.509619C57.4231 0.173172 56.5479 9.82263e-06 55.664 1.13119e-05ZM55.664 10.1362C54.9749 10.1386 54.3006 9.93764 53.7266 9.55875C53.1526 9.17987 52.7047 8.64016 52.4398 8.00805C52.175 7.37593 52.1051 6.67987 52.2389 6.0082C52.3727 5.33654 52.7043 4.71953 53.1916 4.23537C53.6789 3.75121 54.3 3.42174 54.976 3.28876C55.652 3.15577 56.3525 3.22525 56.9887 3.4884C57.6249 3.75154 58.1681 4.19651 58.5494 4.76683C58.9308 5.33715 59.1331 6.00715 59.1306 6.69185C59.1274 7.60434 58.7611 8.47854 58.1117 9.12378C57.4623 9.76901 56.5824 10.1329 55.664 10.1362Z" fill="#C8A7A7"/>
</svg>
