<svg xmlns="http://www.w3.org/2000/svg" display="none">

    <symbol id="search" viewBox="0 0 27 26">
        <path d="M17.5191 16.8584L26 25M20.3708 10.2979C20.3708 15.433 16.0345 19.5959 10.6854 19.5959C5.33629 19.5959 1 15.433 1 10.2979C1 5.16283 5.33629 1 10.6854 1C16.0345 1 20.3708 5.16283 20.3708 10.2979Z"
              stroke-width="2" stroke-miterlimit="10"/>
    </symbol>

    <symbol id="basket" viewBox="0 0 25 26">
        <path d="M8.85122 8.57546V4.59536C8.84944 4.12384 8.9425 3.65662 9.12508 3.22048C9.30766 2.78435 9.57612 2.38791 9.91513 2.05387C10.2541 1.71984 10.657 1.45479 11.1006 1.27394C11.5442 1.09309 12.0198 0.999997 12.5001 1C12.981 1 13.4573 1.09301 13.9017 1.2737C14.346 1.45438 14.7497 1.7192 15.0898 2.05306C15.4299 2.38692 15.6998 2.78326 15.8838 3.21947C16.0679 3.65568 16.1626 4.12321 16.1626 4.59536V8.57546M20.2034 25H4.8103C4.27225 24.9999 3.7403 24.8879 3.24949 24.6715C2.75869 24.4551 2.32017 24.1391 1.96271 23.7443C1.60525 23.3495 1.33703 22.8849 1.17563 22.381C1.01422 21.8771 0.963198 21.3455 1.02616 20.8209L2.51273 8.54892H22.4872L23.9738 20.8209C24.0366 21.3444 23.9861 21.8749 23.8255 22.3779C23.6649 22.8808 23.3979 23.3448 23.0419 23.7393C22.6859 24.1339 22.2491 24.4502 21.7599 24.6674C21.2707 24.8847 20.7403 24.998 20.2034 25Z"
              stroke-width="2" stroke-miterlimit="10"/>
    </symbol>

    <symbol id="star" viewBox="0 0 27 26">
        <path d="M12.5813 2.13741C12.9281 1.33061 14.0719 1.33061 14.4187 2.13741L16.9992 8.14095C17.1415 8.47201 17.4509 8.70091 17.8092 8.74011L24.1735 9.43671C25.0235 9.52975 25.3722 10.5775 24.7475 11.1614L19.9436 15.651C19.6894 15.8885 19.577 16.2411 19.6467 16.582L20.9803 23.1026C21.1545 23.9545 20.2335 24.6075 19.4873 24.1612L14.0133 20.887C13.6972 20.698 13.3028 20.698 12.9867 20.887L7.51273 24.1612C6.76648 24.6075 5.84545 23.9545 6.01969 23.1026L7.35334 16.582C7.42305 16.2411 7.3106 15.8885 7.05642 15.651L2.2525 11.1614C1.62777 10.5775 1.97649 9.52975 2.8265 9.43671L9.19085 8.74011C9.54906 8.70091 9.85847 8.47201 10.0008 8.14095L12.5813 2.13741Z"
              stroke-width="2" stroke-miterlimit="10"/>
    </symbol>

    <symbol id="vk" viewBox="0 0 31 20">
        <path d="M25.7244 11.6237C25.2233 10.9587 25.3666 10.6628 25.7244 10.0684C25.7309 10.0616 29.8682 4.05487 30.2945 2.0178L30.2971 2.01644C30.5089 1.27409 30.2971 0.728516 29.2728 0.728516H25.8833C25.0205 0.728516 24.6226 1.19673 24.4095 1.72059C24.4095 1.72059 22.6837 6.06073 20.2424 8.87409C19.4545 9.68702 19.0902 9.94759 18.6601 9.94759C18.4482 9.94759 18.1188 9.68702 18.1188 8.94466V2.01644C18.1188 1.12616 17.8773 0.728516 17.163 0.728516H11.8334C11.2921 0.728516 10.9705 1.1438 10.9705 1.53059C10.9705 2.37473 12.1912 2.5688 12.3178 4.9438V10.0969C12.3178 11.226 12.1227 11.4337 11.69 11.4337C10.5378 11.4337 7.74123 7.07587 6.08396 2.08837C5.74941 1.12073 5.4226 0.729873 4.55328 0.729873H1.16254C0.195048 0.729873 0 1.19809 0 1.72194C0 2.64752 1.15221 7.24959 5.35802 13.3296C8.16103 17.4797 12.1085 19.7285 15.6995 19.7285C17.8579 19.7285 18.1214 19.2291 18.1214 18.37C18.1214 14.4044 17.9264 14.0299 19.0075 14.0299C19.5087 14.0299 20.3716 14.2904 22.3867 16.2922C24.6898 18.6659 25.0682 19.7285 26.3574 19.7285H29.7468C30.713 19.7285 31.2026 19.2291 30.921 18.2438C30.2764 16.1714 25.9208 11.9087 25.7244 11.6237Z"/>
    </symbol>

    <symbol id="telegram" viewBox="0 0 27 24">
        <path d="M10.5946 15.8871L10.1479 22.3086C10.787 22.3086 11.0637 22.028 11.3956 21.6911L14.3915 18.7643L20.5994 23.4115C21.738 24.0601 22.5401 23.7185 22.8472 22.3408L26.9221 2.82312L26.9232 2.82197C27.2844 1.10158 26.3146 0.428833 25.2053 0.850881L1.25348 10.2245C-0.381184 10.8731 -0.356434 11.8046 0.975599 12.2266L7.09912 14.1736L21.3228 5.07596C21.9922 4.62286 22.6009 4.87356 22.1002 5.32666L10.5946 15.8871Z"/>
    </symbol>

    <symbol id="whatsapp" viewBox="0 0 27 27">
        <path d="M13.4931 0H13.4864C6.04846 0 0 6.05014 0 13.4897C0 16.4406 0.951026 19.1757 2.56811 21.3964L0.88695 26.4078L6.07206 24.7503C8.20513 26.1633 10.7496 26.9795 13.4931 26.9795C20.931 26.9795 26.9795 20.9276 26.9795 13.4897C26.9795 6.05183 20.931 0 13.4931 0ZM21.3424 19.0492C21.017 19.9682 19.7254 20.7303 18.6951 20.9529C17.9902 21.103 17.0696 21.2227 13.9703 19.9378C10.006 18.2954 7.45308 14.2671 7.2541 14.0057C7.06356 13.7443 5.6522 11.8726 5.6522 9.93687C5.6522 8.0011 6.63526 7.0585 7.03152 6.65381C7.35696 6.32162 7.89486 6.16987 8.41085 6.16987C8.57778 6.16987 8.72786 6.1783 8.86275 6.18504C9.25901 6.2019 9.45799 6.22551 9.71935 6.8511C10.0448 7.63519 10.8373 9.57096 10.9317 9.76994C11.0279 9.96891 11.124 10.2387 10.9891 10.5001C10.8626 10.7699 10.7513 10.8896 10.5523 11.1189C10.3534 11.3482 10.1645 11.5236 9.96554 11.7698C9.78343 11.9839 9.57771 12.2133 9.80703 12.6095C10.0364 12.9974 10.8289 14.2907 11.9957 15.3294C13.5015 16.6699 14.7224 17.0982 15.1591 17.2803C15.4845 17.4152 15.8724 17.3832 16.1101 17.1303C16.4119 16.8048 16.7846 16.2652 17.164 15.7341C17.4338 15.353 17.7744 15.3058 18.1319 15.4407C18.4961 15.5671 20.4235 16.5199 20.8197 16.7171C21.216 16.9161 21.4773 17.0105 21.5735 17.1775C21.6679 17.3444 21.6679 18.1285 21.3424 19.0492Z"/>
    </symbol>

    <symbol id="close" viewBox="0 0 27 27">
        <path d="M2.07692 0L0 2.07692L11.4231 13.5L0 24.9231L2.07692 27L13.5 15.5769L24.9231 27L27 24.9231L15.5769 13.5L27 2.07692L24.9231 0L13.5 11.4231L2.07692 0Z"/>
    </symbol>

    <symbol id="arrow-left" viewBox="0 0 57 28">
        <path d="M56.5068 14.686L2.99998 14.686" stroke-width="3" stroke-miterlimit="10"/>
        <path d="M15.3672 2.0002L2.99986 14.3575L15.3672 26.7249" stroke-width="3"
              stroke-miterlimit="10"/>
    </symbol>

    <symbol id="arrow-right" viewBox="0 0 57 28">
        <path d="M0.493164 14.0388L54 14.0388" stroke-width="3" stroke-miterlimit="10"/>
        <path d="M41.6328 26.7247L54.0001 14.3673L41.6328 2" stroke-width="3" stroke-miterlimit="10"/>
    </symbol>


    <symbol id="left" viewBox="0 0 23 44">
        <path d="M22 43L1 22L22 1"/>
    </symbol>

    <symbol id="right" viewBox="0 0 23 44">
        <path d="M1 1L22 22L1 43"/>
    </symbol>


</svg>