<svg width="31" height="19" viewBox="0 0 31 19" fill="none" xmlns="http://www.w3.org/2000/svg">
    <path d="M25.7244 10.8951C25.2233 10.2301 25.3666 9.93429 25.7244 9.33986C25.7309 9.33307 29.8682 3.32636 30.2945 1.28929L30.2971 1.28793C30.5089 0.545571 30.2971 0 29.2728 0H25.8833C25.0205 0 24.6226 0.468214 24.4095 0.992071C24.4095 0.992071 22.6837 5.33221 20.2424 8.14557C19.4545 8.9585 19.0902 9.21907 18.6601 9.21907C18.4482 9.21907 18.1188 8.9585 18.1188 8.21614V1.28793C18.1188 0.397643 17.8773 0 17.163 0H11.8334C11.2921 0 10.9705 0.415286 10.9705 0.802072C10.9705 1.64621 12.1912 1.84029 12.3178 4.21529V9.36836C12.3178 10.4975 12.1227 10.7051 11.69 10.7051C10.5378 10.7051 7.74123 6.34736 6.08396 1.35986C5.74941 0.392214 5.4226 0.00135704 4.55328 0.00135704H1.16254C0.195048 0.00135704 0 0.469571 0 0.993428C0 1.919 1.15221 6.52107 5.35802 12.6011C8.16103 16.7512 12.1085 19 15.6995 19C17.8579 19 18.1214 18.5006 18.1214 17.6415C18.1214 13.6759 17.9264 13.3014 19.0075 13.3014C19.5087 13.3014 20.3716 13.5619 22.3867 15.5637C24.6898 17.9374 25.0682 19 26.3574 19H29.7468C30.713 19 31.2026 18.5006 30.921 17.5153C30.2764 15.4429 25.9208 11.1801 25.7244 10.8951Z" fill="white"/>
</svg>
