<svg width="28" height="28" viewBox="0 0 28 28" fill="none" xmlns="http://www.w3.org/2000/svg">
    <path d="M13.517 0.271484H13.5103C6.07238 0.271484 0.0239258 6.32163 0.0239258 13.7612C0.0239258 16.7121 0.974952 19.4471 2.59203 21.6679L0.910876 26.6793L6.09599 25.0218C8.22905 26.4348 10.7736 27.2509 13.517 27.2509C20.9549 27.2509 27.0034 21.1991 27.0034 13.7612C27.0034 6.32331 20.9549 0.271484 13.517 0.271484ZM21.3664 19.3207C21.0409 20.2397 19.7493 21.0018 18.719 21.2244C18.0142 21.3745 17.0935 21.4942 13.9942 20.2093C10.0299 18.5669 7.477 14.5386 7.27803 14.2772C7.08749 14.0158 5.67612 12.1441 5.67612 10.2084C5.67612 8.27258 6.65919 7.32999 7.05545 6.92529C7.38089 6.59311 7.91879 6.44135 8.43477 6.44135C8.60171 6.44135 8.75178 6.44978 8.88668 6.45653C9.28294 6.47339 9.48191 6.497 9.74328 7.12258C10.0687 7.90667 10.8612 9.84245 10.9557 10.0414C11.0518 10.2404 11.1479 10.5102 11.013 10.7716C10.8865 11.0413 10.7752 11.1611 10.5763 11.3904C10.3773 11.6197 10.1884 11.7951 9.98946 12.0413C9.80735 12.2554 9.60163 12.4847 9.83096 12.881C10.0603 13.2688 10.8528 14.5622 12.0197 15.6009C13.5255 16.9414 14.7463 17.3697 15.183 17.5518C15.5084 17.6867 15.8963 17.6547 16.134 17.4018C16.4359 17.0763 16.8085 16.5367 17.1879 16.0056C17.4577 15.6245 17.7983 15.5773 18.1558 15.7122C18.52 15.8386 20.4474 16.7913 20.8436 16.9886C21.2399 17.1876 21.5013 17.282 21.5974 17.449C21.6918 17.6159 21.6918 18.4 21.3664 19.3207Z" fill="white"/>
</svg>
